<svg version="1.1" id="Layer_1" xmlns="http://www.w3.org/2000/svg" xmlns:xlink="http://www.w3.org/1999/xlink" x="0px" y="0px"
	 width="100%" viewBox="0 0 622 572" enable-background="new 0 0 622 572" xml:space="preserve">
<path fill="#FFFFFF" opacity="1.000000" stroke="none" 
	d="
M423.000000,573.000000 
	C282.000000,573.000000 141.500000,573.000000 1.000000,573.000000 
	C1.000000,382.333344 1.000000,191.666672 1.000000,1.000000 
	C208.333328,1.000000 415.666656,1.000000 623.000000,1.000000 
	C623.000000,191.666672 623.000000,382.333344 623.000000,573.000000 
	C556.500000,573.000000 490.000000,573.000000 423.000000,573.000000 
M399.435211,423.984955 
	C399.435211,423.984955 399.886078,423.957092 400.648651,423.968628 
	C401.765778,422.034637 402.882874,420.100677 404.924988,418.011841 
	C410.155914,418.011841 415.386841,418.011841 420.968201,418.011841 
	C420.968201,410.726624 420.968201,403.846832 421.908936,396.997803 
	C428.592560,396.997803 435.276184,396.997803 441.967102,396.997803 
	C441.967102,389.502838 441.967102,382.735321 442.908142,375.997528 
	C449.592041,375.997528 456.275940,375.997528 462.967468,375.997528 
	C462.967468,368.502441 462.967468,361.734650 463.908325,354.997498 
	C470.506805,354.997498 477.105286,354.997498 483.689758,354.997498 
	C483.689758,299.066650 483.689758,243.619476 483.689758,188.033539 
	C476.576202,188.033539 469.771820,188.033539 462.997833,187.092422 
	C462.997833,180.408447 462.997833,173.724472 462.997833,167.033371 
	C455.502991,167.033371 448.735260,167.033371 441.996918,166.092239 
	C441.996918,159.408371 441.996918,152.724503 441.996918,146.033905 
	C434.504150,146.033905 427.736603,146.033905 420.997803,145.092789 
	C420.997803,138.748184 420.997803,132.403580 420.997803,125.885094 
	C413.541870,125.885094 406.792023,125.885094 400.003235,124.963028 
	C400.003235,118.378677 400.003235,111.794327 400.003235,105.326805 
	C343.998535,105.326805 288.568146,105.326805 233.076355,105.326805 
	C233.076355,112.458473 233.076355,119.263550 232.131073,126.004410 
	C225.439804,126.004410 218.748535,126.004410 212.031250,126.004410 
	C212.031250,133.153061 212.031250,139.593491 211.090591,146.002426 
	C204.407043,146.002426 197.723495,146.002426 191.033676,146.002426 
	C191.033676,153.496582 191.033676,160.263931 190.092453,167.001572 
	C183.408279,167.001572 176.724106,167.001572 170.032379,167.001572 
	C170.032379,174.497498 170.032379,181.265533 169.091553,188.003052 
	C162.493134,188.003052 155.894730,188.003052 149.310196,188.003052 
	C149.310196,243.934189 149.310196,299.381226 149.310196,354.967133 
	C156.423904,354.967133 163.228195,354.967133 170.002655,355.908142 
	C170.002655,362.591980 170.002655,369.275787 170.002655,375.967804 
	C177.497543,375.967804 184.265198,375.967804 191.002319,376.908630 
	C191.002319,383.592438 191.002319,390.276245 191.002319,396.967865 
	C198.497849,396.967865 205.265594,396.967865 212.002625,397.908691 
	C212.002625,404.475677 212.002625,411.042633 212.002625,417.930878 
	C219.284042,417.930878 226.179855,417.930878 233.005341,418.874420 
	C233.005341,425.474854 233.005341,432.075256 233.005341,439.000000 
	C235.080841,439.000000 236.707275,439.000000 238.333694,439.000000 
	C266.939392,439.000000 295.545135,439.020935 324.150818,438.993164 
	C345.767120,438.972168 367.383392,438.888885 389.753021,438.988037 
	C390.951263,438.613556 392.136475,437.985992 393.350769,437.923401 
	C395.208099,437.827637 397.085510,438.121643 398.954346,438.250183 
	C398.914032,436.166687 398.873718,434.083191 399.157623,431.301483 
	C398.810120,428.881622 398.462646,426.461761 398.574860,423.990906 
	C398.574860,423.990906 399.009705,423.833374 399.435211,423.984955 
z"/>
<path fill="#000000" opacity="1.000000" stroke="none" 
	d="
M233.076355,126.068626 
	C233.076355,119.263550 233.076355,112.458473 233.076355,105.326805 
	C288.568146,105.326805 343.998535,105.326805 400.003235,105.326805 
	C400.003235,111.794327 400.003235,118.378677 400.008362,125.795547 
	C399.994690,127.123405 399.975891,127.618729 399.626709,128.062195 
	C398.492767,128.659195 397.689178,129.308060 396.489868,129.976593 
	C395.074738,129.757843 393.365997,129.792725 393.145844,129.237457 
	C391.501465,125.089706 388.165283,125.949631 384.577209,126.088867 
	C382.436340,126.063004 380.718567,126.114578 378.537354,126.091751 
	C368.771698,126.011208 359.469452,125.988113 350.167267,126.001984 
	C318.111694,126.049805 286.056091,126.110535 253.537048,126.088806 
	C246.359070,125.984222 239.644562,125.957176 232.966492,125.964905 
	C233.002914,125.999672 233.076355,126.068626 233.076355,126.068626 
z"/>
<path fill="#000000" opacity="1.000000" stroke="none" 
	d="
M462.967438,188.033539 
	C469.771820,188.033539 476.576202,188.033539 483.689758,188.033539 
	C483.689758,243.619476 483.689758,299.066650 483.689758,354.997498 
	C477.105286,354.997498 470.506805,354.997498 463.455017,354.999847 
	C463.001740,355.002197 463.036926,355.036591 463.020508,354.565826 
	C463.014954,298.717834 463.025848,243.340607 463.019257,187.980774 
	C463.001801,187.998184 462.967438,188.033539 462.967438,188.033539 
z"/>
<path fill="#000000" opacity="1.000000" stroke="none" 
	d="
M170.032486,354.967133 
	C163.228195,354.967133 156.423904,354.967133 149.310196,354.967133 
	C149.310196,299.381226 149.310196,243.934189 149.310196,188.003052 
	C155.894730,188.003052 162.493134,188.003052 169.544800,188.000610 
	C169.998032,187.998184 169.963226,187.963272 169.979492,188.434052 
	C169.984863,244.282089 169.973969,299.659363 169.980682,355.019531 
	C169.998306,355.002411 170.032486,354.967133 170.032486,354.967133 
z"/>
<path fill="#000000" opacity="1.000000" stroke="none" 
	d="
M398.115173,424.041901 
	C398.462646,426.461761 398.810120,428.881622 398.588013,431.650818 
	C390.069519,432.539185 389.495880,432.973816 388.999664,438.833344 
	C367.383392,438.888885 345.767120,438.972168 324.150818,438.993164 
	C295.545135,439.020935 266.939392,439.000000 238.333694,439.000000 
	C236.707275,439.000000 235.080841,439.000000 233.005341,439.000000 
	C233.005341,432.075256 233.005341,425.474854 233.003799,418.437103 
	C233.002258,417.999786 232.930084,418.069977 233.398315,418.037506 
	C238.244263,418.058929 242.621948,418.112823 246.999802,418.570251 
	C247.134613,425.801147 252.464844,429.709137 258.535675,427.663116 
	C261.112274,426.794769 263.892395,426.081726 266.583282,426.070251 
	C293.666229,425.954895 320.750305,425.909607 347.833038,426.045715 
	C358.258270,426.098114 368.696747,426.415710 379.099670,427.076813 
	C387.609772,427.617615 388.959259,426.701538 389.354614,418.178772 
	C390.792633,418.421448 391.876373,418.652039 392.974915,419.245911 
	C393.659821,420.406128 394.329895,421.203064 395.058197,422.352295 
	C396.115997,423.150360 397.115570,423.596130 398.115173,424.041901 
z"/>
<path fill="#FFFFFF" opacity="1.000000" stroke="none" 
	d="
M392.960144,418.882629 
	C391.876373,418.652039 390.792633,418.421448 388.983612,418.101471 
	C387.505737,418.063660 386.753113,418.115204 385.568481,418.089355 
	C383.091156,417.952393 381.045776,417.892822 379.000214,417.375153 
	C378.986206,410.264954 378.972443,403.612793 379.429688,396.977264 
	C386.600494,397.050812 393.300232,397.107788 400.000000,397.623047 
	C400.000000,404.687164 400.000000,411.293030 400.000000,417.841919 
	C401.681976,417.978485 402.841003,418.072601 404.000000,418.166687 
	C402.882874,420.100677 401.765778,422.034637 400.314331,423.724182 
	C399.979980,423.479706 399.833374,423.015808 399.910522,422.652588 
	C399.325256,420.915161 398.662811,419.540924 397.613708,418.089447 
	C395.804718,418.302338 394.382446,418.592499 392.960144,418.882629 
z"/>
<path fill="#000000" opacity="1.000000" stroke="none" 
	d="
M233.038971,417.965332 
	C226.179855,417.930878 219.284042,417.930878 212.002625,417.930878 
	C212.002625,411.042633 212.002625,404.475677 212.000336,397.455414 
	C211.998062,397.002136 211.963196,397.036835 212.433853,397.020569 
	C219.603027,397.057953 226.301544,397.111603 233.000031,397.622040 
	C232.976700,404.742554 232.953384,411.406281 232.930084,418.069977 
	C232.930084,418.069977 233.002258,417.999786 233.038971,417.965332 
z"/>
<path fill="#000000" opacity="1.000000" stroke="none" 
	d="
M441.967102,375.967804 
	C441.967102,382.735321 441.967102,389.502838 441.967102,396.997803 
	C435.276184,396.997803 428.592560,396.997803 421.455627,396.999969 
	C421.002319,397.002136 421.036835,397.036865 421.020264,396.566162 
	C421.003693,389.419983 421.003693,382.744537 421.003693,376.036957 
	C428.520111,376.036957 435.278381,376.036957 442.019470,376.019470 
	C442.002258,376.002014 441.967102,375.967804 441.967102,375.967804 
z"/>
<path fill="#000000" opacity="1.000000" stroke="none" 
	d="
M212.015701,396.984985 
	C205.265594,396.967865 198.497849,396.967865 191.002319,396.967865 
	C191.002319,390.276245 191.002319,383.592438 191.000000,376.455322 
	C190.997681,376.001984 190.963303,376.036957 191.434021,376.020569 
	C198.580017,376.004150 205.255310,376.004150 211.963196,376.004150 
	C211.963196,383.520447 211.963196,390.278625 211.963196,397.036835 
	C211.963196,397.036835 211.998062,397.002136 212.015701,396.984985 
z"/>
<path fill="#000000" opacity="1.000000" stroke="none" 
	d="
M462.984619,354.984558 
	C462.967468,361.734650 462.967468,368.502441 462.967468,375.997528 
	C456.275940,375.997528 449.592041,375.997528 442.437622,375.982666 
	C441.967102,375.967804 442.002258,376.002014 442.003296,375.548767 
	C442.004303,368.420197 442.004303,361.744904 442.004303,355.036591 
	C449.520569,355.036591 456.278748,355.036591 463.036926,355.036591 
	C463.036926,355.036591 463.001740,355.002197 462.984619,354.984558 
z"/>
<path fill="#000000" opacity="1.000000" stroke="none" 
	d="
M191.015259,375.984894 
	C184.265198,375.967804 177.497543,375.967804 170.002655,375.967804 
	C170.002655,369.275787 170.002655,362.591980 170.017578,355.437622 
	C170.032486,354.967133 169.998306,355.002411 170.451416,355.003296 
	C177.579666,355.004211 184.254807,355.004211 190.963303,355.004211 
	C190.963303,362.520874 190.963303,369.278900 190.963303,376.036957 
	C190.963303,376.036957 190.997681,376.001984 191.015259,375.984894 
z"/>
<path fill="#000000" opacity="1.000000" stroke="none" 
	d="
M404.462494,418.089264 
	C402.841003,418.072601 401.681976,417.978485 400.000000,417.841919 
	C400.000000,411.293030 400.000000,404.687164 400.464050,397.549438 
	C407.630981,397.024017 414.333923,397.030457 421.036835,397.036865 
	C421.036835,397.036865 421.002319,397.002136 420.985260,396.984589 
	C420.968201,403.846832 420.968201,410.726624 420.968201,418.011841 
	C415.386841,418.011841 410.155914,418.011841 404.462494,418.089264 
z"/>
<path fill="#000000" opacity="1.000000" stroke="none" 
	d="
M191.033676,167.031296 
	C191.033676,160.263931 191.033676,153.496582 191.033676,146.002426 
	C197.723495,146.002426 204.407043,146.002426 211.543823,146.000580 
	C211.997055,145.998749 211.963379,145.963058 211.979767,146.433777 
	C211.996155,153.579819 211.996155,160.255112 211.996155,166.963303 
	C204.479401,166.963303 197.721222,166.963303 190.980789,166.980194 
	C190.998535,166.997101 191.033676,167.031296 191.033676,167.031296 
z"/>
<path fill="#000000" opacity="1.000000" stroke="none" 
	d="
M441.967529,167.033371 
	C448.735260,167.033371 455.502991,167.033371 462.997833,167.033371 
	C462.997833,173.724472 462.997833,180.408447 462.982635,187.562988 
	C462.967438,188.033539 463.001801,187.998184 462.548553,187.997269 
	C455.420166,187.996353 448.745026,187.996353 442.036865,187.996353 
	C442.036865,180.479462 442.036865,173.721436 442.019348,166.980713 
	C442.001831,166.998016 441.967529,167.033371 441.967529,167.033371 
z"/>
<path fill="#000000" opacity="1.000000" stroke="none" 
	d="
M170.015198,188.015869 
	C170.032379,181.265533 170.032379,174.497498 170.032379,167.001572 
	C176.724106,167.001572 183.408279,167.001572 190.563065,167.016434 
	C191.033676,167.031296 190.998535,166.997101 190.997375,167.450897 
	C190.996216,174.580154 190.996216,181.255585 190.996216,187.963272 
	C183.479736,187.963272 176.721481,187.963272 169.963226,187.963272 
	C169.963226,187.963272 169.998032,187.998184 170.015198,188.015869 
z"/>
<path fill="#000000" opacity="1.000000" stroke="none" 
	d="
M420.969025,146.033905 
	C427.736603,146.033905 434.504150,146.033905 441.996918,146.033905 
	C441.996918,152.724503 441.996918,159.408371 441.982239,166.562805 
	C441.967529,167.033371 442.001831,166.998016 441.548645,166.996796 
	C434.420258,166.995575 427.745087,166.995575 421.036713,166.995575 
	C421.036713,159.479187 421.036713,152.721100 421.019958,145.980865 
	C421.003204,145.998749 420.969025,146.033905 420.969025,146.033905 
z"/>
<path fill="#000000" opacity="1.000000" stroke="none" 
	d="
M399.957092,128.114059 
	C399.975891,127.618729 399.994690,127.123405 400.027832,126.256584 
	C406.792023,125.885094 413.541870,125.885094 420.997803,125.885094 
	C420.997803,132.403580 420.997803,138.748184 420.983398,145.563354 
	C420.969025,146.033905 421.003204,145.998749 420.549316,145.997375 
	C413.397156,145.942490 406.698883,145.888977 400.000305,145.389313 
	C399.371277,139.976440 398.742554,135.009705 398.454529,130.021545 
	C399.182495,129.371414 399.569794,128.742737 399.957092,128.114059 
z"/>
<path fill="#000000" opacity="1.000000" stroke="none" 
	d="
M212.014160,146.016342 
	C212.031250,139.593491 212.031250,133.153061 212.031250,126.004410 
	C218.748535,126.004410 225.439804,126.004410 232.603714,126.036514 
	C233.076355,126.068626 233.002914,125.999672 232.998962,126.436676 
	C232.996521,133.194092 232.998032,139.514511 232.535599,145.908447 
	C225.368896,145.975662 218.666138,145.969360 211.963379,145.963058 
	C211.963379,145.963058 211.997055,145.998749 212.014160,146.016342 
z"/>
<path fill="#000000" opacity="1.000000" stroke="none" 
	d="
M389.376343,438.910706 
	C389.495880,432.973816 390.069519,432.539185 398.425903,431.999908 
	C398.873718,434.083191 398.914032,436.166687 398.954346,438.250183 
	C397.085510,438.121643 395.208099,437.827637 393.350769,437.923401 
	C392.136475,437.985992 390.951263,438.613556 389.376343,438.910706 
z"/>
<path fill="#000000" opacity="1.000000" stroke="none" 
	d="
M398.000366,418.166687 
	C398.662811,419.540924 399.325256,420.915161 399.733643,422.744690 
	C399.259583,423.364105 399.102966,423.575226 399.009705,423.833374 
	C399.009705,423.833374 398.574860,423.990906 398.345001,424.016418 
	C397.115570,423.596130 396.115997,423.150360 395.433105,422.343689 
	C396.500031,420.710785 397.250214,419.438751 398.000366,418.166687 
z"/>
<path fill="#000000" opacity="1.000000" stroke="none" 
	d="
M399.222473,423.909180 
	C399.102966,423.575226 399.259583,423.364105 399.656464,423.107880 
	C399.833374,423.015808 399.979980,423.479706 399.933044,423.718384 
	C399.886078,423.957092 399.435211,423.984955 399.222473,423.909180 
z"/>
<path fill="#DEFF00" opacity="1.000000" stroke="none" 
	d="
M378.958679,396.960663 
	C378.972443,403.612793 378.986206,410.264954 378.537231,417.449280 
	C369.104431,417.987640 360.134308,418.010193 351.164276,417.996918 
	C318.776184,417.948975 286.388062,417.888977 253.999969,417.375427 
	C254.013168,410.264984 254.026382,403.612701 254.019806,396.980194 
	C254.000000,397.000000 253.960403,397.039612 254.431259,397.022949 
	C261.502808,397.006317 268.103516,397.006317 275.039581,397.006317 
	C275.039581,375.898315 275.039581,355.429382 275.019775,334.980225 
	C275.000000,335.000031 274.960419,335.039612 275.431274,335.022522 
	C282.498322,335.005432 289.094574,335.005432 295.680420,335.005432 
	C295.680420,292.685822 295.680420,250.996689 295.680420,208.960388 
	C288.562805,208.960388 281.761566,208.960388 274.980164,208.980194 
	C275.000000,209.000000 275.039642,209.039612 275.023071,208.568695 
	C275.006500,187.503876 275.006500,166.909958 275.006500,145.960373 
	C267.571808,145.960373 260.766083,145.960373 253.980560,145.980194 
	C254.000717,146.000031 254.041489,146.039185 254.024185,145.568680 
	C254.004761,138.787567 254.002640,132.476959 254.000519,126.166351 
	C286.056091,126.110535 318.111694,126.049805 350.167267,126.001984 
	C359.469452,125.988113 368.771698,126.011208 378.537445,126.476440 
	C379.056244,127.957222 379.111511,128.978912 379.097534,130.392090 
	C378.963318,134.189194 378.898346,137.594772 378.489014,141.043640 
	C376.763092,142.669144 375.381531,144.251358 373.536987,145.903351 
	C368.144897,145.973145 363.215759,145.973145 357.960358,145.973145 
	C357.960358,167.444870 357.960358,188.242233 357.980164,209.019806 
	C358.000000,209.000000 358.039642,208.960388 357.568756,208.976959 
	C350.501495,208.993546 343.905151,208.993546 337.319519,208.993546 
	C337.319519,251.313095 337.319519,293.002716 337.319519,335.039642 
	C344.437073,335.039642 351.238373,335.039642 358.019836,335.019836 
	C358.000000,335.000000 357.960388,334.960388 357.976868,335.431335 
	C357.993347,356.162811 357.993347,376.423370 357.993347,397.039612 
	C365.429077,397.039612 372.234344,397.039612 379.019531,397.019714 
	C378.999420,396.999847 378.958679,396.960663 378.958679,396.960663 
z"/>
<path fill="#FFFFFF" opacity="1.000000" stroke="none" 
	d="
M253.537048,126.088806 
	C254.002640,132.476959 254.004761,138.787567 253.553131,145.552429 
	C246.399445,145.949417 239.699493,145.892166 232.999542,145.834915 
	C232.998032,139.514511 232.996521,133.194092 232.962540,126.401901 
	C239.644562,125.957176 246.359070,125.984222 253.537048,126.088806 
z"/>
<path fill="#FFFFFF" opacity="1.000000" stroke="none" 
	d="
M378.833405,141.000366 
	C378.898346,137.594772 378.963318,134.189194 379.489075,130.391861 
	C382.705170,130.134125 385.228912,129.963089 385.000336,126.166298 
	C388.165283,125.949631 391.501465,125.089706 393.145844,129.237457 
	C393.365997,129.792725 395.074738,129.757843 396.796936,129.998032 
	C397.704437,130.014206 397.909149,130.028595 398.113831,130.042969 
	C398.742554,135.009705 399.371277,139.976440 399.633728,145.346313 
	C394.378479,145.832977 389.484497,145.808807 384.602173,146.035370 
	C380.924225,146.206024 378.973267,144.723053 378.833405,141.000366 
z"/>
<path fill="#FFFFFF" opacity="1.000000" stroke="none" 
	d="
M384.577209,126.088867 
	C385.228912,129.963089 382.705170,130.134125 379.558350,130.000366 
	C379.111511,128.978912 379.056244,127.957222 379.000885,126.550842 
	C380.718567,126.114578 382.436340,126.063004 384.577209,126.088867 
z"/>
<path fill="#FFFFFF" opacity="1.000000" stroke="none" 
	d="
M398.454529,130.021545 
	C397.909149,130.028595 397.704437,130.014206 397.192657,129.978363 
	C397.689178,129.308060 398.492767,128.659195 399.626709,128.062195 
	C399.569794,128.742737 399.182495,129.371414 398.454529,130.021545 
z"/>
<path fill="#DEFF00" opacity="1.000000" stroke="none" 
	d="
M378.489014,141.043640 
	C378.973267,144.723053 380.924225,146.206024 384.602173,146.035370 
	C389.484497,145.808807 394.378479,145.832977 399.634033,145.792450 
	C406.698883,145.888977 413.397156,145.942490 420.566071,145.979492 
	C421.036713,152.721100 421.036713,159.479187 421.036713,166.995575 
	C427.745087,166.995575 434.420258,166.995575 441.566162,166.979492 
	C442.036865,173.721436 442.036865,180.479462 442.036865,187.996353 
	C448.745026,187.996353 455.420166,187.996353 462.566010,187.979858 
	C463.025848,243.340607 463.014954,298.717834 463.020508,354.565826 
	C456.278748,355.036591 449.520569,355.036591 442.004303,355.036591 
	C442.004303,361.744904 442.004303,368.420197 442.020477,375.566223 
	C435.278381,376.036957 428.520111,376.036957 421.003693,376.036957 
	C421.003693,382.744537 421.003693,389.419983 421.020264,396.566162 
	C414.333923,397.030457 407.630981,397.024017 400.464050,397.091187 
	C393.300232,397.107788 386.600494,397.050812 379.429688,396.977264 
	C378.958679,396.960663 378.999420,396.999847 379.002838,396.548767 
	C379.006256,375.837006 379.006256,355.576294 379.006256,334.960388 
	C371.571655,334.960388 364.766022,334.960388 357.960388,334.960388 
	C357.960388,334.960388 358.000000,335.000000 358.003143,334.548889 
	C358.017395,292.385284 358.028503,250.672836 358.039612,208.960388 
	C358.039642,208.960388 358.000000,209.000000 358.451111,209.003250 
	C365.494873,209.006500 372.087524,209.006500 378.728363,209.006500 
	C378.728363,187.661423 378.728363,166.936859 378.728363,146.171173 
	C376.973450,146.045883 375.486725,145.939743 374.000000,145.833588 
	C375.381531,144.251358 376.763092,142.669144 378.489014,141.043640 
z"/>
<path fill="#DEFF00" opacity="1.000000" stroke="none" 
	d="
M232.535599,145.908447 
	C239.699493,145.892166 246.399445,145.949417 253.570435,146.022934 
	C254.041489,146.039185 254.000717,146.000031 253.997177,146.451157 
	C253.993637,167.496231 253.993637,188.090179 253.993637,209.039612 
	C261.428894,209.039612 268.234283,209.039612 275.039642,209.039612 
	C275.039642,209.039612 275.000000,209.000000 274.996765,209.451141 
	C274.982513,251.614731 274.971466,293.327179 274.960419,335.039612 
	C274.960419,335.039612 275.000000,335.000031 274.548889,334.996826 
	C267.497070,334.993591 260.896362,334.993591 253.960403,334.993591 
	C253.960403,356.101471 253.960403,376.570557 253.960403,397.039612 
	C253.960403,397.039612 254.000000,397.000000 253.548981,396.996826 
	C246.398651,397.050842 239.699356,397.108032 233.000061,397.165222 
	C226.301544,397.111603 219.603027,397.057953 212.433853,397.020569 
	C211.963196,390.278625 211.963196,383.520447 211.963196,376.004150 
	C205.255310,376.004150 198.580017,376.004150 191.434021,376.020569 
	C190.963303,369.278900 190.963303,362.520874 190.963303,355.004211 
	C184.254807,355.004211 177.579666,355.004211 170.433777,355.020447 
	C169.973969,299.659363 169.984863,244.282089 169.979492,188.434052 
	C176.721481,187.963272 183.479736,187.963272 190.996216,187.963272 
	C190.996216,181.255585 190.996216,174.580154 190.979630,167.434006 
	C197.721222,166.963303 204.479401,166.963303 211.996155,166.963303 
	C211.996155,160.255112 211.996155,153.579819 211.979767,146.433777 
	C218.666138,145.969360 225.368896,145.975662 232.535599,145.908447 
z"/>
<path fill="#FFFFFF" opacity="1.000000" stroke="none" 
	d="
M233.000031,397.622040 
	C239.699356,397.108032 246.398651,397.050842 253.568771,396.977051 
	C254.026382,403.612701 254.013168,410.264984 253.604279,417.452698 
	C252.138885,418.047607 251.069183,418.107117 249.628448,418.089355 
	C248.504837,418.063629 247.752243,418.115143 246.999649,418.166687 
	C242.621948,418.112823 238.244263,418.058929 233.398315,418.037506 
	C232.953384,411.406281 232.976700,404.742554 233.000031,397.622040 
z"/>
<path fill="#000000" opacity="1.000000" stroke="none" 
	d="
M246.999802,418.570251 
	C247.752243,418.115143 248.504837,418.063629 249.628677,418.487061 
	C250.409058,424.001465 251.812836,425.135559 256.406769,424.385101 
	C258.196960,424.092682 260.039154,424.016205 261.857758,424.015167 
	C298.177032,423.994873 334.496338,424.019592 370.815521,423.965149 
	C373.934296,423.960480 377.307556,422.577393 380.116516,423.385345 
	C385.608368,424.964935 386.272064,422.410370 386.000488,418.166748 
	C386.753113,418.115204 387.505737,418.063660 388.629395,418.089417 
	C388.959259,426.701538 387.609772,427.617615 379.099670,427.076813 
	C368.696747,426.415710 358.258270,426.098114 347.833038,426.045715 
	C320.750305,425.909607 293.666229,425.954895 266.583282,426.070251 
	C263.892395,426.081726 261.112274,426.794769 258.535675,427.663116 
	C252.464844,429.709137 247.134613,425.801147 246.999802,418.570251 
z"/>
<path fill="#000000" opacity="1.000000" stroke="none" 
	d="
M397.613708,418.089447 
	C397.250214,419.438751 396.500031,420.710785 395.374939,421.991394 
	C394.329895,421.203064 393.659821,420.406128 392.974915,419.245911 
	C394.382446,418.592499 395.804718,418.302338 397.613708,418.089447 
z"/>
<path fill="#000000" opacity="1.000000" stroke="none" 
	d="
M385.568481,418.089355 
	C386.272064,422.410370 385.608368,424.964935 380.116516,423.385345 
	C377.307556,422.577393 373.934296,423.960480 370.815521,423.965149 
	C334.496338,424.019592 298.177032,423.994873 261.857758,424.015167 
	C260.039154,424.016205 258.196960,424.092682 256.406769,424.385101 
	C251.812836,425.135559 250.409058,424.001465 249.999695,418.564331 
	C251.069183,418.107117 252.138885,418.047607 253.604279,417.910828 
	C286.388062,417.888977 318.776184,417.948975 351.164276,417.996918 
	C360.134308,418.010193 369.104431,417.987640 378.537476,417.907349 
	C381.045776,417.892822 383.091156,417.952393 385.568481,418.089355 
z"/>
<path fill="#FFFFFF" opacity="1.000000" stroke="none" 
	d="
M357.568726,208.976959 
	C358.028503,250.672836 358.017395,292.385284 358.022949,334.568695 
	C351.238373,335.039642 344.437073,335.039642 337.319519,335.039642 
	C337.319519,293.002716 337.319519,251.313095 337.319519,208.993546 
	C343.905151,208.993546 350.501495,208.993546 357.568726,208.976959 
z"/>
<path fill="#FFFFFF" opacity="1.000000" stroke="none" 
	d="
M275.431274,335.022522 
	C274.971466,293.327179 274.982513,251.614731 274.976959,209.431335 
	C281.761566,208.960388 288.562805,208.960388 295.680420,208.960388 
	C295.680420,250.996689 295.680420,292.685822 295.680420,335.005432 
	C289.094574,335.005432 282.498322,335.005432 275.431274,335.022522 
z"/>
<path fill="#FFFFFF" opacity="1.000000" stroke="none" 
	d="
M275.023071,208.568695 
	C268.234283,209.039612 261.428894,209.039612 253.993637,209.039612 
	C253.993637,188.090179 253.993637,167.496231 253.977020,146.431335 
	C260.766083,145.960373 267.571808,145.960373 275.006500,145.960373 
	C275.006500,166.909958 275.006500,187.503876 275.023071,208.568695 
z"/>
<path fill="#FFFFFF" opacity="1.000000" stroke="none" 
	d="
M373.536987,145.903366 
	C375.486725,145.939743 376.973450,146.045883 378.728363,146.171173 
	C378.728363,166.936859 378.728363,187.661423 378.728363,209.006500 
	C372.087524,209.006500 365.494873,209.006500 358.431274,209.023056 
	C357.960358,188.242233 357.960358,167.444870 357.960358,145.973145 
	C363.215759,145.973145 368.144897,145.973145 373.536987,145.903366 
z"/>
<path fill="#FFFFFF" opacity="1.000000" stroke="none" 
	d="
M254.431259,397.022949 
	C253.960403,376.570557 253.960403,356.101471 253.960403,334.993591 
	C260.896362,334.993591 267.497070,334.993591 274.568665,334.977020 
	C275.039581,355.429382 275.039581,375.898315 275.039581,397.006317 
	C268.103516,397.006317 261.502808,397.006317 254.431259,397.022949 
z"/>
<path fill="#FFFFFF" opacity="1.000000" stroke="none" 
	d="
M357.976868,335.431335 
	C364.766022,334.960388 371.571655,334.960388 379.006256,334.960388 
	C379.006256,355.576294 379.006256,375.837006 379.022949,396.568665 
	C372.234344,397.039612 365.429077,397.039612 357.993347,397.039612 
	C357.993347,376.423370 357.993347,356.162811 357.976868,335.431335 
z"/>
</svg>