<svg version="1.1" id="Layer_1" xmlns="http://www.w3.org/2000/svg" xmlns:xlink="http://www.w3.org/1999/xlink" x="0px" y="0px"
	 width="100%" viewBox="0 0 622 572" enable-background="new 0 0 622 572" xml:space="preserve">
<path fill="#000000" opacity="1.000000" stroke="none" 
	d="
M350.000000,573.000000 
	C233.333328,573.000000 117.166664,573.000000 1.000000,573.000000 
	C1.000000,382.333344 1.000000,191.666672 1.000000,1.000000 
	C208.333328,1.000000 415.666656,1.000000 623.000000,1.000000 
	C623.000000,191.666672 623.000000,382.333344 623.000000,573.000000 
	C532.166687,573.000000 441.333344,573.000000 350.000000,573.000000 
M378.499695,440.000214 
	C385.692871,440.000214 392.886017,440.000214 400.760193,440.000214 
	C400.760193,433.368469 400.760193,426.346985 400.760193,418.949951 
	C408.177826,418.949951 414.923981,418.949951 422.036499,418.949951 
	C422.036499,411.798676 422.036499,405.035583 422.036499,398.269653 
	C427.792725,398.524048 433.178589,398.635437 438.541840,399.043488 
	C442.146637,399.317749 443.186707,397.820465 443.058990,394.401855 
	C442.844177,388.650787 443.000153,382.885864 443.000153,376.753357 
	C450.375458,376.753357 457.123138,376.753357 464.247864,376.753357 
	C464.247864,369.617065 464.247864,362.869904 464.247864,355.746094 
	C471.390045,355.746094 478.136078,355.746094 484.678528,355.746094 
	C484.678528,299.279755 484.678528,243.213821 484.678528,186.750336 
	C477.614655,186.750336 470.867432,186.750336 464.000214,186.750336 
	C464.000214,182.531189 464.037842,178.709412 463.993195,174.888611 
	C463.859467,163.442566 465.590881,165.139496 454.339813,165.006744 
	C450.589508,164.962494 446.838257,164.999771 442.704010,164.999771 
	C442.704010,157.566345 442.704010,150.822220 442.704010,143.697708 
	C435.559998,143.697708 428.815491,143.697708 422.000153,143.697708 
	C422.000153,138.303619 421.854797,133.303192 422.052124,128.316315 
	C422.180023,125.083939 421.077087,123.822166 417.761841,123.945091 
	C412.312988,124.147118 406.851166,123.999840 401.004150,123.999840 
	C401.004150,117.211685 401.004150,110.796455 401.004150,104.198517 
	C344.538879,104.198517 288.473419,104.198517 232.028687,104.198517 
	C232.028687,111.134758 232.028687,117.898346 232.028687,123.999870 
	C226.102585,123.999870 220.580704,124.112839 215.066605,123.954750 
	C212.069855,123.868835 210.850708,124.897308 210.952240,127.986588 
	C211.125183,133.247894 210.999878,138.519012 210.999878,143.999817 
	C205.127228,143.999817 199.809662,144.177185 194.510986,143.937485 
	C190.976013,143.777573 189.790161,145.055466 189.938828,148.544769 
	C190.169647,153.962372 189.999802,159.397018 189.999802,164.999939 
	C184.080887,164.999939 178.756973,165.185394 173.453568,164.935547 
	C169.845261,164.765549 168.814484,166.189575 168.941254,169.602325 
	C169.154861,175.353073 168.999817,181.117523 168.999817,187.251251 
	C161.616531,187.251251 154.869095,187.251251 148.318634,187.251251 
	C148.318634,243.714493 148.318634,299.780396 148.318634,356.241486 
	C155.378723,356.241486 162.124771,356.241486 169.247467,356.241486 
	C169.247467,363.380920 169.247467,370.128387 169.247467,377.252228 
	C176.388092,377.252228 183.134186,377.252228 190.068573,377.252228 
	C190.068573,384.285278 190.068573,390.921417 190.068573,398.275726 
	C197.111862,398.275726 203.952606,398.275726 211.170853,398.275726 
	C211.170853,405.293823 211.170853,412.042999 211.170853,419.179382 
	C218.311142,419.179382 225.055710,419.179382 232.185425,419.179382 
	C232.185425,426.318756 232.185425,433.062256 232.185425,440.000214 
	C280.890045,440.000214 329.194916,440.000214 378.499695,440.000214 
z"/>
<path fill="#FFFFFF" opacity="1.000000" stroke="none" 
	d="
M377.999756,440.000214 
	C329.194916,440.000214 280.890045,440.000214 232.185425,440.000214 
	C232.185425,433.062256 232.185425,426.318756 232.185425,419.179382 
	C225.055710,419.179382 218.311142,419.179382 211.170853,419.179382 
	C211.170853,412.042999 211.170853,405.293823 211.170853,398.275726 
	C203.952606,398.275726 197.111862,398.275726 190.068573,398.275726 
	C190.068573,390.921417 190.068573,384.285278 190.068573,377.252228 
	C183.134186,377.252228 176.388092,377.252228 169.247467,377.252228 
	C169.247467,370.128387 169.247467,363.380920 169.247467,356.241486 
	C162.124771,356.241486 155.378723,356.241486 148.318634,356.241486 
	C148.318634,299.780396 148.318634,243.714493 148.318634,187.251251 
	C154.869095,187.251251 161.616531,187.251251 168.999817,187.251251 
	C168.999817,181.117523 169.154861,175.353073 168.941254,169.602325 
	C168.814484,166.189575 169.845261,164.765549 173.453568,164.935547 
	C178.756973,165.185394 184.080887,164.999939 189.999802,164.999939 
	C189.999802,159.397018 190.169647,153.962372 189.938828,148.544769 
	C189.790161,145.055466 190.976013,143.777573 194.510986,143.937485 
	C199.809662,144.177185 205.127228,143.999817 210.999878,143.999817 
	C210.999878,138.519012 211.125183,133.247894 210.952240,127.986588 
	C210.850708,124.897308 212.069855,123.868835 215.066605,123.954750 
	C220.580704,124.112839 226.102585,123.999870 232.028687,123.999870 
	C232.028687,117.898346 232.028687,111.134758 232.028687,104.198517 
	C288.473419,104.198517 344.538879,104.198517 401.004150,104.198517 
	C401.004150,110.796455 401.004150,117.211685 401.004150,123.999840 
	C406.851166,123.999840 412.312988,124.147118 417.761841,123.945091 
	C421.077087,123.822166 422.180023,125.083939 422.052124,128.316315 
	C421.854797,133.303192 422.000153,138.303619 422.000153,143.697708 
	C428.815491,143.697708 435.559998,143.697708 442.704010,143.697708 
	C442.704010,150.822220 442.704010,157.566345 442.704010,164.999771 
	C446.838257,164.999771 450.589508,164.962494 454.339813,165.006744 
	C465.590881,165.139496 463.859467,163.442566 463.993195,174.888611 
	C464.037842,178.709412 464.000214,182.531189 464.000214,186.750336 
	C470.867432,186.750336 477.614655,186.750336 484.678528,186.750336 
	C484.678528,243.213821 484.678528,299.279755 484.678528,355.746094 
	C478.136078,355.746094 471.390045,355.746094 464.247864,355.746094 
	C464.247864,362.869904 464.247864,369.617065 464.247864,376.753357 
	C457.123138,376.753357 450.375458,376.753357 443.000153,376.753357 
	C443.000153,382.885864 442.844177,388.650787 443.058990,394.401855 
	C443.186707,397.820465 442.146637,399.317749 438.541840,399.043488 
	C433.178589,398.635437 427.792725,398.524048 422.036499,398.269653 
	C422.036499,405.035583 422.036499,411.798676 422.036499,418.949951 
	C414.923981,418.949951 408.177826,418.949951 400.760193,418.949951 
	C400.760193,426.346985 400.760193,433.368469 400.760193,440.000214 
	C392.886017,440.000214 385.692871,440.000214 377.999756,440.000214 
M421.002899,145.105042 
	C421.002899,138.867416 421.002899,132.629791 421.002899,126.069084 
	C413.717224,126.069084 406.820679,126.069084 399.994629,125.125542 
	C399.994629,118.522614 399.994629,111.919685 399.994629,105.321335 
	C344.071533,105.321335 288.610352,105.321335 233.076157,105.321335 
	C233.076157,112.451271 233.076157,119.260300 232.130997,126.004402 
	C225.436188,126.004402 218.741394,126.004402 212.056335,126.004402 
	C212.056335,133.169296 212.056335,139.615128 211.114288,145.991913 
	C204.542618,145.991913 197.970947,145.991913 191.078918,145.991913 
	C191.078918,153.277954 191.078918,160.176208 190.133820,167.001266 
	C183.437424,167.001266 176.741028,167.001266 170.057938,167.001266 
	C170.057938,174.502792 170.057938,181.281128 169.115570,187.992401 
	C162.514038,187.992401 155.912521,187.992401 149.316772,187.992401 
	C149.316772,243.929504 149.316772,299.385590 149.316772,354.942963 
	C156.440201,354.942963 163.247299,354.942963 169.998657,355.886108 
	C169.998657,362.577667 169.998657,369.269226 169.998657,375.941650 
	C177.506149,375.941650 184.281219,375.941650 190.997498,376.884827 
	C190.997498,383.576569 190.997498,390.268280 190.997498,396.939209 
	C198.504410,396.939209 205.279190,396.939209 211.997482,397.882996 
	C211.997482,404.455322 211.997482,411.027679 211.997482,417.931885 
	C219.278595,417.931885 226.177841,417.931885 233.005325,418.875244 
	C233.005325,425.478058 233.005325,432.080872 233.005325,438.679016 
	C288.928528,438.679016 344.389313,438.679016 399.923004,438.679016 
	C399.923004,431.549591 399.923004,424.740845 400.868439,417.995636 
	C407.554932,417.995636 414.241394,417.995636 420.833130,417.995636 
	C420.833130,411.534485 420.833130,405.767151 420.989105,399.122711 
	C422.093384,398.415131 423.177643,397.135406 424.305328,397.095886 
	C430.177948,396.890106 436.061646,396.999969 441.939880,396.999969 
	C441.939880,389.509521 441.939880,382.726105 442.882782,376.009979 
	C449.455444,376.009979 456.028076,376.009979 462.925293,376.009979 
	C462.925293,368.720093 462.925293,361.820557 463.619934,354.999786 
	C464.080109,354.944122 464.540283,354.888428 465.925995,354.987823 
	C471.856506,354.987823 477.786987,354.987823 483.700928,354.987823 
	C483.700928,299.063568 483.700928,243.625671 483.700928,188.167480 
	C477.597229,188.167480 471.798859,188.167480 465.124084,188.010834 
	C464.416138,186.905228 463.135834,185.819687 463.096191,184.690643 
	C462.890167,178.819168 463.000244,172.936584 463.000244,167.059891 
	C455.509918,167.059891 448.727509,167.059891 442.002380,166.116348 
	C442.002380,159.425644 442.002380,152.734955 442.002380,146.047256 
	C434.502625,146.047256 427.729797,146.047256 421.002899,145.105042 
z"/>
<path fill="#000000" opacity="1.000000" stroke="none" 
	d="
M233.076157,126.069328 
	C233.076157,119.260300 233.076157,112.451271 233.076157,105.321335 
	C288.610352,105.321335 344.071533,105.321335 399.994629,105.321335 
	C399.994629,111.919685 399.994629,118.522614 399.996033,125.562889 
	C399.997437,126.000237 400.069733,125.930328 399.597595,125.960953 
	C392.284485,126.055786 385.443451,126.119995 378.382355,126.103058 
	C377.842926,125.976524 377.536163,126.020004 376.750183,126.082802 
	C366.445862,126.006554 356.633301,125.981186 346.820801,125.996658 
	C315.890930,126.045441 284.961060,126.109543 253.565170,126.098656 
	C246.376251,125.996567 239.653366,125.963547 232.966644,125.965485 
	C233.002823,126.000458 233.076157,126.069328 233.076157,126.069328 
z"/>
<path fill="#000000" opacity="1.000000" stroke="none" 
	d="
M399.923004,417.932068 
	C399.923004,424.740845 399.923004,431.549591 399.923004,438.679016 
	C344.389313,438.679016 288.928528,438.679016 233.005325,438.679016 
	C233.005325,432.080872 233.005325,425.478058 233.004501,418.437988 
	C233.003677,418.000763 232.930252,418.069641 233.402374,418.039124 
	C240.595596,417.949677 247.316711,417.890747 254.494873,417.912933 
	C295.714874,417.944763 336.477844,417.895477 377.465698,417.911865 
	C378.012268,418.030823 378.314819,417.976868 379.097504,417.892273 
	C386.421112,418.002502 393.245422,418.036041 400.033020,418.035248 
	C399.996338,418.000885 399.923004,417.932068 399.923004,417.932068 
z"/>
<path fill="#000000" opacity="1.000000" stroke="none" 
	d="
M170.054398,354.942963 
	C163.247299,354.942963 156.440201,354.942963 149.316772,354.942963 
	C149.316772,299.385590 149.316772,243.929504 149.316772,187.992401 
	C155.912521,187.992401 162.514038,187.992401 169.559601,187.997742 
	C170.003647,188.003098 169.947983,187.948090 169.965515,188.419739 
	C169.971466,244.278473 169.959900,299.665527 169.974976,355.025330 
	C170.001617,354.998047 170.054398,354.942963 170.054398,354.942963 
z"/>
<path fill="#000000" opacity="1.000000" stroke="none" 
	d="
M466.000488,188.167480 
	C471.798859,188.167480 477.597229,188.167480 483.700928,188.167480 
	C483.700928,243.625671 483.700928,299.063568 483.700928,354.987823 
	C477.786987,354.987823 471.856506,354.987823 465.463013,354.452271 
	C465.000000,308.114899 464.944824,262.312958 465.045349,216.511398 
	C465.066101,207.062775 465.666992,197.615417 466.000488,188.167480 
z"/>
<path fill="#000100" opacity="1.000000" stroke="none" 
	d="
M465.562286,188.089157 
	C465.666992,197.615417 465.066101,207.062775 465.045349,216.511398 
	C464.944824,262.312958 465.000000,308.114899 465.000244,354.374695 
	C464.540283,354.888428 464.080109,354.944122 463.297302,354.986511 
	C462.974640,354.973267 463.024780,355.024780 463.009338,354.703796 
	C462.941437,353.959564 462.889038,353.536316 462.909332,352.636963 
	C462.982025,297.841370 462.982025,243.521866 462.982025,189.163330 
	C460.317596,189.163330 458.176392,189.163330 455.573730,189.090057 
	C450.754791,188.968597 446.397369,188.920410 442.023071,188.416046 
	C442.020752,180.956528 442.035309,173.953217 442.023804,166.977478 
	C441.997681,167.005066 441.945099,167.059891 441.945099,167.059891 
	C448.727509,167.059891 455.509918,167.059891 463.000244,167.059891 
	C463.000244,172.936584 462.890167,178.819168 463.096191,184.690643 
	C463.135834,185.819687 464.416138,186.905228 465.562286,188.089157 
z"/>
<path fill="#000100" opacity="1.000000" stroke="none" 
	d="
M441.939880,375.942688 
	C441.939880,382.726105 441.939880,389.509521 441.939880,396.999969 
	C436.061646,396.999969 430.177948,396.890106 424.305328,397.095886 
	C423.177643,397.135406 422.093384,398.415131 420.453247,399.561340 
	C413.334595,400.000061 406.751831,400.000153 400.092377,399.648773 
	C400.013367,398.578308 400.011078,397.859283 400.232727,397.075928 
	C400.456696,397.011597 400.888763,396.836945 401.364258,396.909546 
	C407.919464,396.679962 413.999176,396.377808 420.450867,395.845093 
	C420.899170,389.113464 420.975494,382.612335 421.514160,376.062866 
	C428.668304,376.026978 435.360107,376.039459 442.024048,376.024475 
	C441.996185,375.997040 441.939880,375.942688 441.939880,375.942688 
z"/>
<path fill="#000100" opacity="1.000000" stroke="none" 
	d="
M191.078918,167.074463 
	C191.078918,160.176208 191.078918,153.277954 191.078918,145.991913 
	C197.970947,145.991913 204.542618,145.991913 211.558167,145.998276 
	C212.002029,146.004639 211.948105,145.947968 211.965652,146.419525 
	C211.950577,153.577774 211.917938,160.264481 211.670685,166.980560 
	C211.456055,167.009933 211.050064,167.161209 210.581146,167.088074 
	C204.374725,167.064484 198.637222,167.114029 192.583893,167.093658 
	C191.837158,167.007599 191.406219,166.991440 191.001022,167.000259 
	C191.026764,167.025223 191.078918,167.074463 191.078918,167.074463 
z"/>
<path fill="#000000" opacity="1.000000" stroke="none" 
	d="
M191.056274,375.941650 
	C184.281219,375.941650 177.506149,375.941650 169.998657,375.941650 
	C169.998657,369.269226 169.998657,362.577667 170.026520,355.414551 
	C170.054398,354.942963 170.001617,354.998047 170.314148,355.004822 
	C171.073944,354.952484 171.521194,354.893311 172.433746,354.908875 
	C178.924240,355.035095 184.949448,355.086670 190.987152,355.593658 
	C190.983093,362.716003 190.966522,369.382935 190.976868,376.023132 
	C191.003815,375.996429 191.056274,375.941650 191.056274,375.941650 
z"/>
<path fill="#000100" opacity="1.000000" stroke="none" 
	d="
M462.949951,354.947144 
	C462.925293,361.820557 462.925293,368.720093 462.925293,376.009979 
	C456.028076,376.009979 449.455444,376.009979 442.411316,375.976318 
	C441.939880,375.942688 441.996185,375.997040 442.006531,375.552917 
	C442.049683,368.422363 442.082520,361.735901 442.329285,355.020203 
	C442.543274,354.990936 442.947968,354.839935 443.417053,354.913025 
	C449.625610,354.936371 455.365051,354.886627 461.419556,354.906982 
	C462.164673,354.992981 462.594727,355.008850 463.024780,355.024780 
	C463.024780,355.024780 462.974640,354.973267 462.949951,354.947144 
z"/>
<path fill="#000100" opacity="1.000000" stroke="none" 
	d="
M170.030792,188.031281 
	C170.057938,181.281128 170.057938,174.502792 170.057938,167.001266 
	C176.741028,167.001266 183.437424,167.001266 190.606369,167.037872 
	C191.078918,167.074463 191.026764,167.025223 191.017181,167.321838 
	C191.059647,168.042587 191.111679,168.466721 191.090958,169.365814 
	C191.065674,175.575256 191.113159,181.309708 191.085403,187.247955 
	C191.010178,187.451736 190.955048,187.882675 190.491821,187.933746 
	C183.335068,187.972580 176.641525,187.960342 169.947983,187.948090 
	C169.947983,187.948090 170.003647,188.003098 170.030792,188.031281 
z"/>
<path fill="#000100" opacity="1.000000" stroke="none" 
	d="
M212.053970,396.939209 
	C205.279190,396.939209 198.504410,396.939209 190.997498,396.939209 
	C190.997498,390.268280 190.997498,383.576569 191.026886,376.413239 
	C191.056274,375.941650 191.003815,375.996429 191.448288,376.005005 
	C198.597336,376.051086 205.301926,376.088593 212.005768,376.061188 
	C212.005035,375.996246 211.875183,375.995789 211.927856,376.464264 
	C211.970413,383.638550 211.960297,390.344391 211.975769,397.022095 
	C212.001343,396.994019 212.053970,396.939209 212.053970,396.939209 
z"/>
<path fill="#000000" opacity="1.000000" stroke="none" 
	d="
M420.956970,146.047256 
	C427.729797,146.047256 434.502625,146.047256 442.002380,146.047256 
	C442.002380,152.734955 442.002380,159.425644 441.973755,166.588120 
	C441.945099,167.059891 441.997681,167.005066 441.552368,166.996185 
	C434.449890,166.982010 427.792694,166.976730 421.077393,166.508118 
	C420.950439,160.009171 420.881592,153.973541 420.881165,147.608398 
	C420.987488,146.832260 421.025330,146.385651 421.036377,145.965866 
	C421.009613,145.992706 420.956970,146.047256 420.956970,146.047256 
z"/>
<path fill="#000000" opacity="1.000000" stroke="none" 
	d="
M233.040390,417.966309 
	C226.177841,417.931885 219.278595,417.931885 211.997482,417.931885 
	C211.997482,411.027679 211.997482,404.455322 212.025726,397.411102 
	C212.053970,396.939209 212.001343,396.994019 212.447021,397.003113 
	C219.290970,396.953796 225.689224,396.895416 232.310028,396.922363 
	C232.532562,397.007690 232.990463,397.140198 233.000229,397.599854 
	C232.983414,404.729553 232.956833,411.399597 232.930252,418.069641 
	C232.930252,418.069641 233.003677,418.000763 233.040390,417.966309 
z"/>
<path fill="#000000" opacity="1.000000" stroke="none" 
	d="
M212.029175,146.032806 
	C212.056335,139.615128 212.056335,133.169296 212.056335,126.004402 
	C218.741394,126.004402 225.436188,126.004402 232.603577,126.036865 
	C233.076157,126.069328 233.002823,126.000458 232.995972,126.437469 
	C232.976837,133.220413 232.964554,139.566345 232.768845,145.943222 
	C232.585403,145.974167 232.259888,146.152802 231.769012,146.084335 
	C224.834808,145.993240 218.391449,145.970596 211.948105,145.947968 
	C211.948105,145.947968 212.002029,146.004639 212.029175,146.032806 
z"/>
<path fill="#000000" opacity="1.000000" stroke="none" 
	d="
M399.960785,126.034660 
	C406.820679,126.069084 413.717224,126.069084 421.002899,126.069084 
	C421.002899,132.629791 421.002899,138.867416 420.979919,145.576141 
	C420.956970,146.047256 421.009613,145.992706 420.565857,146.012909 
	C416.987396,146.039703 413.844971,146.187546 410.720062,146.016022 
	C407.086060,145.816528 403.467407,145.337234 399.912781,144.517075 
	C400.012268,138.013290 400.040985,131.971817 400.069702,125.930328 
	C400.069733,125.930328 399.997437,126.000237 399.960785,126.034660 
z"/>
<path fill="#000000" opacity="1.000000" stroke="none" 
	d="
M400.169067,400.000214 
	C406.751831,400.000153 413.334595,400.000061 420.375244,399.999908 
	C420.833130,405.767151 420.833130,411.534485 420.833130,417.995636 
	C414.241394,417.995636 407.554932,417.995636 400.395721,417.963867 
	C399.923004,417.932068 399.996338,418.000885 400.002289,417.563751 
	C400.061859,411.417816 400.115479,405.709015 400.169067,400.000214 
z"/>
<path fill="#DEFF02" opacity="1.000000" stroke="none" 
	d="
M378.598206,417.815582 
	C378.314819,417.976868 378.012268,418.030823 377.117310,417.640167 
	C374.734100,417.183289 372.924194,416.960419 371.114197,416.959412 
	C334.592651,416.939056 298.071045,416.964233 261.549622,416.899078 
	C259.116089,416.894745 256.683746,416.243835 254.165283,415.439941 
	C254.107285,409.340973 254.134857,403.695648 254.379791,397.984283 
	C254.870728,397.734528 255.021286,397.478424 255.511658,397.099182 
	C262.205200,397.048370 268.435883,397.048370 274.954285,397.048370 
	C274.954285,375.757111 274.954285,355.356445 275.425140,334.981079 
	C281.219940,335.009033 286.545807,334.927338 291.867035,335.048706 
	C294.681030,335.112885 296.087646,334.410919 296.080658,331.169708 
	C295.995789,291.739319 295.996490,252.308609 296.081299,212.878204 
	C296.088165,209.688644 294.792847,208.875671 291.920502,208.948792 
	C286.267395,209.092667 280.608887,209.023926 274.979980,208.572433 
	C274.981049,187.761002 274.954742,167.420273 274.912506,146.808060 
	C274.607422,146.351746 274.318237,146.166916 274.015839,145.992538 
	C274.002594,146.002975 274.013733,145.971893 273.954742,145.772247 
	C273.579224,145.654800 273.262726,145.736969 272.485046,145.872406 
	C266.708893,145.884689 261.393860,145.843735 256.043396,145.505463 
	C255.402420,144.775986 254.796890,144.343811 254.132950,143.454193 
	C254.130447,138.035446 254.186340,133.074173 254.636795,128.035995 
	C257.137573,127.655396 259.243378,127.090027 261.350037,127.086937 
	C298.064453,127.032997 334.779022,127.061470 371.493439,127.009880 
	C373.410034,127.007187 375.325836,126.450920 377.242004,126.152374 
	C377.536163,126.020004 377.842926,125.976524 378.477722,126.551620 
	C378.876465,133.059891 378.959778,139.038467 378.994690,144.891602 
	C378.946259,144.766144 378.679810,144.801468 378.414185,144.857040 
	C377.762787,145.261795 377.376953,145.610977 376.529846,146.038559 
	C370.762177,146.162033 365.455872,146.207108 359.799286,146.166351 
	C358.997864,146.744339 358.546692,147.408142 358.040527,148.053436 
	C357.985504,148.034943 357.904205,147.952057 357.712341,148.030304 
	C357.455261,148.229553 357.304047,148.402206 357.340179,148.462296 
	C357.470551,148.679199 357.663971,148.858231 357.887451,149.514008 
	C357.973602,169.317627 358.005890,188.658783 357.959290,207.878510 
	C357.880402,207.757065 357.594604,207.804062 357.342407,207.857239 
	C356.722839,208.256165 356.355499,208.601929 355.525970,209.020844 
	C349.418274,209.126862 343.772766,209.159729 337.729736,209.186462 
	C336.977325,210.214371 336.313416,211.248001 336.312042,212.282501 
	C336.259491,252.027985 336.288666,291.773590 336.231110,331.519073 
	C336.226044,335.001648 337.682220,336.256592 341.047974,336.140778 
	C346.031219,335.969330 351.023193,336.051117 356.311279,336.056763 
	C357.011200,336.089172 357.411316,336.089935 357.875183,336.549561 
	C357.903839,356.322510 357.868805,375.636688 357.652405,395.053467 
	C357.643585,395.438690 357.816071,395.721283 358.021881,395.962036 
	C358.055206,395.920166 358.159210,395.894928 358.158203,396.170349 
	C358.479889,396.550018 358.802612,396.654266 359.579071,396.840271 
	C366.009491,396.986572 371.986206,397.051117 378.037170,397.337036 
	C378.293976,397.838898 378.551483,397.998352 378.926575,398.501038 
	C378.845520,405.248718 378.721863,411.532166 378.598206,417.815582 
z"/>
<path fill="#FFFFF5" opacity="1.000000" stroke="none" 
	d="
M254.242218,128.112900 
	C254.186340,133.074173 254.130447,138.035446 253.960724,143.744659 
	C253.200806,145.059387 252.554733,145.626175 251.449463,146.136337 
	C244.977600,146.023895 238.964951,145.968079 232.952286,145.912277 
	C232.964554,139.566345 232.976837,133.220413 232.959793,126.402496 
	C239.653366,125.963547 246.376251,125.996567 253.541321,126.430283 
	C254.069748,127.258286 254.155991,127.685593 254.242218,128.112900 
z"/>
<path fill="#FFFFF9" opacity="1.000000" stroke="none" 
	d="
M379.043091,145.017044 
	C378.959778,139.038467 378.876465,133.059891 378.697815,126.632759 
	C385.443451,126.119995 392.284485,126.055786 399.597595,125.960953 
	C400.040985,131.971817 400.012268,138.013290 399.454468,144.527802 
	C392.297974,145.006241 385.670532,145.011642 379.043091,145.017044 
z"/>
<path fill="#E2F556" opacity="1.000000" stroke="none" 
	d="
M254.636810,128.035995 
	C254.155991,127.685593 254.069748,127.258286 254.007355,126.499352 
	C284.961060,126.109543 315.890930,126.045441 346.820801,125.996658 
	C356.633301,125.981186 366.445862,126.006554 376.750183,126.082809 
	C375.325836,126.450920 373.410034,127.007187 371.493439,127.009880 
	C334.779022,127.061470 298.064453,127.032997 261.350037,127.086937 
	C259.243378,127.090027 257.137573,127.655396 254.636810,128.035995 
z"/>
<path fill="#FFFFF8" opacity="1.000000" stroke="none" 
	d="
M254.162415,398.050354 
	C254.134857,403.695648 254.107285,409.340973 254.036224,415.746582 
	C254.007751,416.948517 254.022781,417.390198 254.037811,417.831848 
	C247.316711,417.890747 240.595596,417.949677 233.402374,418.039124 
	C232.956833,411.399597 232.983414,404.729553 233.464752,397.540161 
	C240.263794,396.957397 246.608093,396.893921 253.207916,396.953735 
	C253.651352,397.061554 253.839249,397.046112 254.016785,397.012787 
	C254.006424,396.994873 253.970276,396.974823 253.945175,397.256775 
	C254.000854,397.709259 254.081635,397.879791 254.162415,398.050354 
z"/>
<path fill="#FFFFF9" opacity="1.000000" stroke="none" 
	d="
M379.097504,417.892273 
	C378.721863,411.532166 378.845520,405.248718 379.030945,398.244080 
	C379.070984,397.339600 379.049255,397.156311 379.012085,396.987793 
	C378.996674,397.002533 378.967102,397.033356 379.244202,397.042786 
	C379.690002,396.976624 379.858704,396.901062 380.490204,396.888428 
	C387.304932,397.014343 393.656830,397.077301 400.008759,397.140259 
	C400.011078,397.859283 400.013367,398.578308 400.092407,399.648773 
	C400.115479,405.709015 400.061859,411.417816 400.039001,417.598114 
	C393.245422,418.036041 386.421112,418.002502 379.097504,417.892273 
z"/>
<path fill="#E1F652" opacity="1.000000" stroke="none" 
	d="
M254.494873,417.912964 
	C254.022781,417.390198 254.007751,416.948517 254.121780,416.200256 
	C256.683746,416.243835 259.116089,416.894745 261.549622,416.899078 
	C298.071045,416.964233 334.592651,416.939056 371.114197,416.959412 
	C372.924194,416.960419 374.734100,417.183289 376.892426,417.574524 
	C336.477844,417.895477 295.714874,417.944763 254.494873,417.912964 
z"/>
<path fill="#E2F556" opacity="1.000000" stroke="none" 
	d="
M169.965515,188.419739 
	C176.641525,187.960342 183.335068,187.972580 190.241913,188.273041 
	C185.993668,188.726074 181.506256,189.263611 177.077423,188.956558 
	C172.105515,188.611877 170.950546,190.586990 170.963531,195.265152 
	C171.105789,246.515976 171.042679,297.767334 171.091324,349.018524 
	C171.093170,350.957336 171.663193,352.895630 171.968445,354.834167 
	C171.521194,354.893311 171.073944,354.952484 170.287506,355.032104 
	C169.959900,299.665527 169.971466,244.278473 169.965515,188.419739 
z"/>
<path fill="#DEFF00" opacity="1.000000" stroke="none" 
	d="
M400.232727,397.075928 
	C393.656830,397.077301 387.304932,397.014343 380.422943,396.683777 
	C379.723877,396.154572 379.484558,396.006409 379.111938,395.508728 
	C378.996277,375.385986 378.943604,355.726196 378.892029,335.785553 
	C378.573761,335.372650 378.254303,335.240601 377.472961,335.060059 
	C371.027557,334.948669 365.044037,334.885803 359.012024,334.627808 
	C358.833191,334.187347 358.641174,334.008026 358.260010,333.843689 
	C358.132507,333.792633 357.962250,334.008209 357.984314,333.539490 
	C358.011139,315.955322 357.994843,298.839874 358.025696,281.724487 
	C358.068787,257.799713 358.147034,233.875000 358.368896,210.042038 
	C358.527557,210.133820 358.894440,210.155609 359.369385,210.149323 
	C364.507080,210.131180 369.177277,209.950256 373.830414,210.155930 
	C378.322968,210.354507 379.898376,208.667084 379.833832,204.035538 
	C379.592407,186.719635 379.822235,169.397598 379.671326,152.079636 
	C379.639099,148.383209 380.374695,146.701080 384.576172,146.815125 
	C395.059937,147.099686 405.556946,146.865707 416.047668,146.954605 
	C417.638702,146.968079 419.224518,147.594833 420.812744,147.937912 
	C420.881592,153.973541 420.950439,160.009171 421.339783,166.813034 
	C426.265259,167.709564 430.892120,168.170837 435.468933,167.870193 
	C439.826538,167.583969 441.218109,168.933548 441.061584,173.375717 
	C440.880188,178.523331 441.671112,183.705231 442.039948,188.872238 
	C446.397369,188.920410 450.754791,188.968597 455.874451,189.336487 
	C458.246368,189.898209 459.856049,190.140228 462.000275,190.462631 
	C462.000275,192.546219 462.000275,194.504089 462.000275,196.461960 
	C462.000275,246.752518 461.991028,297.043091 462.035614,347.333618 
	C462.037323,349.260345 462.557861,351.186584 462.836639,353.113068 
	C462.889038,353.536316 462.941437,353.959564 463.009338,354.703796 
	C462.594727,355.008850 462.164673,354.992981 461.081696,354.648773 
	C454.601837,354.493622 448.774902,354.666779 442.947968,354.839935 
	C442.947968,354.839935 442.543274,354.990936 441.990906,355.269897 
	C441.273834,359.968201 440.776306,364.407166 441.035400,368.801544 
	C441.311157,373.479065 439.848419,375.273895 434.954193,375.070099 
	C430.342529,374.878143 425.687683,375.722656 421.051849,376.111206 
	C420.975494,382.612335 420.899170,389.113464 419.979675,395.819763 
	C413.053955,396.295593 406.971344,396.566254 400.888763,396.836914 
	C400.888763,396.836945 400.456696,397.011597 400.232727,397.075928 
z"/>
<path fill="#E0F839" opacity="1.000000" stroke="none" 
	d="
M462.909332,352.636963 
	C462.557861,351.186584 462.037323,349.260345 462.035614,347.333618 
	C461.991028,297.043091 462.000275,246.752518 462.000275,196.461960 
	C462.000275,194.504089 462.000275,192.546219 462.000275,190.462631 
	C459.856049,190.140228 458.246368,189.898209 456.335968,189.409760 
	C458.176392,189.163330 460.317596,189.163330 462.982025,189.163330 
	C462.982025,243.521866 462.982025,297.841370 462.909332,352.636963 
z"/>
<path fill="#E1F74C" opacity="1.000000" stroke="none" 
	d="
M442.023071,188.416046 
	C441.671112,183.705231 440.880188,178.523331 441.061584,173.375717 
	C441.218109,168.933548 439.826538,167.583969 435.468933,167.870193 
	C430.892120,168.170837 426.265259,167.709564 421.397888,167.276352 
	C427.792694,166.976730 434.449890,166.982010 441.578491,166.968597 
	C442.035309,173.953217 442.020752,180.956528 442.023071,188.416046 
z"/>
<path fill="#E2F556" opacity="1.000000" stroke="none" 
	d="
M421.514160,376.062866 
	C425.687683,375.722656 430.342529,374.878143 434.954193,375.070099 
	C439.848419,375.273895 441.311157,373.479065 441.035400,368.801544 
	C440.776306,364.407166 441.273834,359.968201 441.776917,355.299133 
	C442.082520,361.735901 442.049683,368.422363 442.034363,375.580383 
	C435.360107,376.039459 428.668304,376.026978 421.514160,376.062866 
z"/>
<path fill="#E0F839" opacity="1.000000" stroke="none" 
	d="
M401.364258,396.909515 
	C406.971344,396.566254 413.053955,396.295593 419.607727,396.050293 
	C413.999176,396.377808 407.919464,396.679962 401.364258,396.909515 
z"/>
<path fill="#DEFF01" opacity="1.000000" stroke="none" 
	d="
M172.433746,354.908875 
	C171.663193,352.895630 171.093170,350.957336 171.091324,349.018524 
	C171.042679,297.767334 171.105789,246.515976 170.963531,195.265152 
	C170.950546,190.586990 172.105515,188.611877 177.077423,188.956558 
	C181.506256,189.263611 185.993668,188.726074 190.705139,188.221985 
	C190.955048,187.882675 191.010178,187.451736 191.347031,186.920532 
	C191.510483,180.556488 191.337097,174.723679 191.163712,168.890854 
	C191.111679,168.466721 191.059647,168.042587 190.991455,167.296875 
	C191.406219,166.991440 191.837158,167.007599 192.921326,167.351715 
	C199.399719,167.506836 205.224899,167.334030 211.050064,167.161209 
	C211.050064,167.161209 211.456055,167.009933 212.009293,166.730865 
	C212.726074,161.689346 213.127884,156.919403 212.978516,152.166809 
	C212.856903,148.297867 214.186493,146.894821 218.114563,146.962769 
	C222.823593,147.044235 227.544266,146.452820 232.259888,146.152802 
	C232.259888,146.152802 232.585403,145.974167 232.768845,145.943222 
	C238.964951,145.968079 244.977600,146.023895 251.487122,146.432800 
	C252.590073,147.217072 253.196167,147.648239 253.860596,148.539520 
	C253.884323,168.314362 253.849701,187.629105 253.636627,207.049896 
	C253.628235,207.442642 253.798264,207.729340 253.985748,208.009521 
	C254.003189,208.002991 253.979584,208.032516 254.044281,208.296692 
	C254.432007,208.683304 254.755066,208.805725 255.540985,208.951736 
	C261.988831,209.030457 267.973816,209.085587 274.032074,209.357117 
	C274.284424,209.847504 274.536591,210.002960 274.907043,210.503998 
	C274.920959,251.965378 274.889709,292.962677 274.643250,334.031677 
	C274.153625,334.280945 273.997223,334.532074 273.495239,334.902557 
	C267.042084,334.982330 261.052490,335.016296 254.797379,335.071411 
	C254.340378,335.371460 254.148880,335.650330 253.980103,335.955994 
	C254.002838,335.982788 253.934311,335.967316 253.740372,336.033417 
	C253.471985,336.212952 253.308502,336.371246 253.338989,336.431824 
	C253.451263,336.654846 253.627823,336.845490 253.846924,337.509338 
	C253.874374,357.295227 253.835098,376.620117 253.587799,396.016296 
	C253.121643,396.268555 252.979187,396.516174 252.952393,396.830444 
	C246.608093,396.893921 240.263794,396.957397 233.454987,397.080505 
	C232.990463,397.140198 232.532562,397.007690 231.969864,396.671326 
	C227.099609,396.234833 222.764511,395.789062 218.492050,396.129456 
	C213.994995,396.487701 212.800674,394.882538 212.939194,390.526794 
	C213.092712,385.699280 212.271790,380.840790 211.875183,375.995789 
	C211.875183,375.995789 212.005035,375.996246 211.738922,375.726807 
	C206.532364,375.283264 201.581741,374.837860 196.654816,375.023163 
	C192.901749,375.164307 191.808151,373.913788 191.864731,370.213531 
	C191.941483,365.194153 191.305130,360.163849 190.974640,355.138245 
	C184.949448,355.086670 178.924240,355.035095 172.433746,354.908875 
z"/>
<path fill="#E2F556" opacity="1.000000" stroke="none" 
	d="
M231.769012,146.084335 
	C227.544266,146.452820 222.823593,147.044235 218.114563,146.962769 
	C214.186493,146.894821 212.856903,148.297867 212.978516,152.166809 
	C213.127884,156.919403 212.726074,161.689346 212.223923,166.701477 
	C211.917938,160.264481 211.950577,153.577774 211.965652,146.419525 
	C218.391449,145.970596 224.834808,145.993240 231.769012,146.084335 
z"/>
<path fill="#E0F839" opacity="1.000000" stroke="none" 
	d="
M210.581146,167.088074 
	C205.224899,167.334030 199.399719,167.506836 193.237122,167.421616 
	C198.637222,167.114029 204.374725,167.064484 210.581146,167.088074 
z"/>
<path fill="#E1F74C" opacity="1.000000" stroke="none" 
	d="
M190.987152,355.593658 
	C191.305130,360.163849 191.941483,365.194153 191.864731,370.213531 
	C191.808151,373.913788 192.901749,375.164307 196.654816,375.023163 
	C201.581741,374.837860 206.532364,375.283264 211.739655,375.791748 
	C205.301926,376.088593 198.597336,376.051086 191.421356,376.031738 
	C190.966522,369.382935 190.983093,362.716003 190.987152,355.593658 
z"/>
<path fill="#E0F839" opacity="1.000000" stroke="none" 
	d="
M443.417053,354.913025 
	C448.774902,354.666779 454.601837,354.493622 460.766632,354.578674 
	C455.365051,354.886627 449.625610,354.936371 443.417053,354.913025 
z"/>
<path fill="#E0F839" opacity="1.000000" stroke="none" 
	d="
M191.090958,169.365814 
	C191.337097,174.723679 191.510483,180.556488 191.422256,186.716736 
	C191.113159,181.309708 191.065674,175.575256 191.090958,169.365814 
z"/>
<path fill="#E1F74C" opacity="1.000000" stroke="none" 
	d="
M211.927841,376.464264 
	C212.271790,380.840790 213.092712,385.699280 212.939194,390.526794 
	C212.800674,394.882538 213.994995,396.487701 218.492050,396.129456 
	C222.764511,395.789062 227.099609,396.234833 231.747314,396.585999 
	C225.689224,396.895416 219.290970,396.953796 212.421448,397.031189 
	C211.960297,390.344391 211.970413,383.638550 211.927841,376.464264 
z"/>
<path fill="#F4FD8E" opacity="1.000000" stroke="none" 
	d="
M420.881195,147.608398 
	C419.224518,147.594833 417.638702,146.968079 416.047668,146.954605 
	C405.556946,146.865707 395.059937,147.099686 384.576172,146.815125 
	C380.374695,146.701080 379.639099,148.383209 379.671326,152.079636 
	C379.822235,169.397598 379.592407,186.719635 379.833832,204.035538 
	C379.898376,208.667084 378.322968,210.354507 373.830414,210.155930 
	C369.177277,209.950256 364.507080,210.131180 359.302124,209.899963 
	C358.503387,209.439880 358.246857,209.222885 357.920776,208.695770 
	C357.765625,208.191772 357.680115,207.997910 357.594604,207.804062 
	C357.594604,207.804062 357.880402,207.757065 358.424530,207.869751 
	C364.108398,208.036530 369.249084,208.049591 374.387482,208.163422 
	C376.680145,208.214188 378.191467,207.774109 378.167267,204.957199 
	C377.999084,185.392960 377.914368,165.828003 378.039978,146.074097 
	C378.411285,145.523758 378.545563,145.162613 378.679810,144.801468 
	C378.679810,144.801468 378.946259,144.766144 378.994690,144.891602 
	C385.670532,145.011642 392.297974,145.006241 399.383728,144.990112 
	C403.467407,145.337234 407.086060,145.816528 410.720062,146.016022 
	C413.844971,146.187546 416.987396,146.039703 420.592621,145.986053 
	C421.025330,146.385651 420.987488,146.832260 420.881195,147.608398 
z"/>
<path fill="#FFFFF6" opacity="1.000000" stroke="none" 
	d="
M274.858459,333.959961 
	C274.889709,292.962677 274.920959,251.965378 275.011108,210.246445 
	C275.056488,209.340591 275.042999,209.156387 275.009094,208.988647 
	C274.988708,209.005127 274.952606,209.043152 274.952606,209.043152 
	C280.608887,209.023926 286.267395,209.092667 291.920502,208.948792 
	C294.792847,208.875671 296.088165,209.688644 296.081299,212.878204 
	C295.996490,252.308609 295.995789,291.739319 296.080658,331.169708 
	C296.087646,334.410919 294.681030,335.112885 291.867035,335.048706 
	C286.545807,334.927338 281.219940,335.009033 275.443237,334.999908 
	C274.990479,334.993439 275.029297,335.028351 275.047729,334.751465 
	C274.996918,334.303070 274.927704,334.131531 274.858459,333.959961 
z"/>
<path fill="#FFFFF9" opacity="1.000000" stroke="none" 
	d="
M358.210205,209.950256 
	C358.147034,233.875000 358.068787,257.799713 358.025696,281.724487 
	C357.994843,298.839874 358.011139,315.955322 357.518799,333.526123 
	C352.543335,334.036530 348.029144,333.809235 343.574829,334.224243 
	C338.930847,334.656952 337.729980,332.974274 337.752899,328.405914 
	C337.933929,292.321594 337.845673,256.235962 337.865448,220.150711 
	C337.867432,216.497955 338.035980,212.845291 338.127258,209.192596 
	C343.772766,209.159729 349.418274,209.126862 355.724762,209.113831 
	C356.385742,209.133652 356.821655,209.185394 356.938477,209.378677 
	C357.234497,209.825150 357.467773,210.010071 357.897766,210.157074 
	C358.040405,210.187393 358.210205,209.950256 358.210205,209.950256 
z"/>
<path fill="#FFFFF4" opacity="1.000000" stroke="none" 
	d="
M253.815079,206.943863 
	C253.849701,187.629105 253.884323,168.314362 254.076996,148.296783 
	C254.849640,146.996918 255.464249,146.399841 256.078857,145.802780 
	C261.393860,145.843735 266.708893,145.884689 272.740356,145.992691 
	C273.642426,146.030472 273.828064,146.001190 274.013733,145.971893 
	C274.013733,145.971893 274.002594,146.002975 274.071838,146.239380 
	C274.403534,146.677048 274.665985,146.878296 274.928467,147.079559 
	C274.954742,167.420273 274.981049,187.761002 274.979980,208.572433 
	C274.952606,209.043152 274.988708,209.005127 274.731873,208.969986 
	C274.302948,209.003448 274.130890,209.072067 273.958801,209.140701 
	C267.973816,209.085587 261.988831,209.030457 255.429749,208.724487 
	C254.563644,208.326614 254.271606,208.179565 253.979584,208.032516 
	C253.979584,208.032516 254.003189,208.002991 254.030045,207.729645 
	C253.976288,207.285477 253.895691,207.114670 253.815079,206.943863 
z"/>
<path fill="#FFFFF5" opacity="1.000000" stroke="none" 
	d="
M253.795822,395.945007 
	C253.835098,376.620117 253.874374,357.295227 253.972107,337.251251 
	C253.998459,336.343872 253.966385,336.155579 253.934311,335.967316 
	C253.934311,335.967316 254.002838,335.982788 254.228622,335.908051 
	C254.657227,335.572266 254.860046,335.311249 255.062866,335.050232 
	C261.052490,335.016296 267.042084,334.982330 273.753387,335.007019 
	C274.659821,335.053223 274.844574,335.040771 275.029297,335.028351 
	C275.029297,335.028351 274.990479,334.993439 274.972382,334.974609 
	C274.954285,355.356445 274.954285,375.757111 274.954285,397.048370 
	C268.435883,397.048370 262.205200,397.048370 255.252762,396.986084 
	C254.344101,396.940796 254.157181,396.957825 253.970276,396.974823 
	C253.970276,396.974823 254.006424,396.994873 254.033203,396.725525 
	C253.971924,396.285828 253.883881,396.115417 253.795822,395.945007 
z"/>
<path fill="#FFFFF9" opacity="1.000000" stroke="none" 
	d="
M378.890900,336.066406 
	C378.943604,355.726196 378.996277,375.385986 378.997894,395.762451 
	C378.953583,396.663849 378.960358,396.848602 378.967102,397.033356 
	C378.967102,397.033356 378.996674,397.002533 378.736877,396.955811 
	C378.305695,396.977936 378.134308,397.046783 377.962891,397.115631 
	C371.986206,397.051117 366.009491,396.986572 359.486023,396.630249 
	C358.746643,396.072052 358.486633,395.924225 358.159210,395.894928 
	C358.159210,395.894928 358.055206,395.920166 358.066132,395.686584 
	C357.995972,395.285583 357.914856,395.118225 357.833771,394.950836 
	C357.868805,375.636688 357.903839,356.322510 358.021606,336.304443 
	C358.097687,335.410767 358.091034,335.221008 358.049622,335.021820 
	C358.014862,335.012421 358.024628,335.083771 358.302826,335.094910 
	C358.740845,335.011658 358.900696,334.917267 359.060516,334.822906 
	C365.044037,334.885803 371.027557,334.948669 377.564941,335.278564 
	C378.308167,335.819946 378.565552,335.993561 378.890900,336.066406 
z"/>
<path fill="#FFFFF8" opacity="1.000000" stroke="none" 
	d="
M377.802856,146.263275 
	C377.914368,165.828003 377.999084,185.392960 378.167267,204.957199 
	C378.191467,207.774109 376.680145,208.214188 374.387482,208.163422 
	C369.249084,208.049591 364.108398,208.036530 358.503418,207.991196 
	C358.005890,188.658783 357.973602,169.317627 357.999420,149.245026 
	C358.006409,148.326401 357.955322,148.139221 357.904205,147.952057 
	C357.904205,147.952057 357.985504,148.034943 358.339417,148.021957 
	C359.178711,147.423386 359.664124,146.837784 360.149536,146.252182 
	C365.455872,146.207108 370.762177,146.162033 376.722748,146.141174 
	C377.376984,146.165405 377.802856,146.263275 377.802856,146.263275 
z"/>
<path fill="#F4FD8E" opacity="1.000000" stroke="none" 
	d="
M337.729736,209.186462 
	C338.035980,212.845291 337.867432,216.497955 337.865448,220.150711 
	C337.845673,256.235962 337.933929,292.321594 337.752899,328.405914 
	C337.729980,332.974274 338.930847,334.656952 343.574829,334.224243 
	C348.029144,333.809235 352.543335,334.036530 357.496704,333.994873 
	C357.962250,334.008209 358.132507,333.792633 358.136871,334.131897 
	C358.102386,334.675323 358.063507,334.879547 358.024628,335.083771 
	C358.024628,335.083771 358.014862,335.012421 357.744995,335.046570 
	C356.987244,335.395477 356.499329,335.710266 356.011444,336.025085 
	C351.023193,336.051117 346.031219,335.969330 341.047974,336.140778 
	C337.682220,336.256592 336.226044,335.001648 336.231110,331.519073 
	C336.288666,291.773590 336.259491,252.027985 336.312042,212.282501 
	C336.313416,211.248001 336.977325,210.214371 337.729736,209.186462 
z"/>
<path fill="#E2F556" opacity="1.000000" stroke="none" 
	d="
M256.043396,145.505463 
	C255.464249,146.399841 254.849640,146.996918 254.018646,147.836700 
	C253.196167,147.648239 252.590073,147.217072 251.946320,146.489441 
	C252.554733,145.626175 253.200806,145.059387 254.019104,144.202118 
	C254.796890,144.343811 255.402420,144.775986 256.043396,145.505463 
z"/>
<path fill="#F4FD8E" opacity="1.000000" stroke="none" 
	d="
M359.799316,146.166367 
	C359.664124,146.837784 359.178711,147.423386 358.394409,148.040451 
	C358.546692,147.408142 358.997864,146.744339 359.799316,146.166367 
z"/>
<path fill="#E2F556" opacity="1.000000" stroke="none" 
	d="
M356.821655,209.185394 
	C356.821655,209.185394 356.385742,209.133652 356.186951,209.040665 
	C356.355499,208.601929 356.722839,208.256165 357.342407,207.857239 
	C357.680115,207.997910 357.765625,208.191772 357.926971,208.691467 
	C358.002777,208.997269 358.013306,208.986862 357.710907,209.009567 
	C357.212891,209.083328 357.017273,209.134369 356.821655,209.185394 
z"/>
<path fill="#E2F556" opacity="1.000000" stroke="none" 
	d="
M378.039948,146.074097 
	C377.802856,146.263275 377.376984,146.165405 377.184082,146.062775 
	C377.376953,145.610977 377.762787,145.261795 378.414185,144.857040 
	C378.545563,145.162613 378.411285,145.523758 378.039948,146.074097 
z"/>
<path fill="#E2F556" opacity="1.000000" stroke="none" 
	d="
M356.311279,336.056732 
	C356.499329,335.710266 356.987244,335.395477 357.779785,335.055969 
	C358.091034,335.221008 358.097687,335.410767 357.957886,335.845642 
	C357.411316,336.089935 357.011200,336.089172 356.311279,336.056732 
z"/>
<path fill="#E1F652" opacity="1.000000" stroke="none" 
	d="
M378.037170,397.337036 
	C378.134308,397.046783 378.305695,396.977936 378.752319,396.941071 
	C379.049255,397.156311 379.070984,397.339600 378.988342,397.779846 
	C378.551483,397.998352 378.293976,397.838898 378.037170,397.337036 
z"/>
<path fill="#E1F652" opacity="1.000000" stroke="none" 
	d="
M253.945175,397.256775 
	C254.157181,396.957825 254.344101,396.940796 254.789917,397.036865 
	C255.021286,397.478424 254.870728,397.734528 254.379791,397.984283 
	C254.081635,397.879791 254.000854,397.709259 253.945175,397.256775 
z"/>
<path fill="#E2F556" opacity="1.000000" stroke="none" 
	d="
M274.912537,146.808060 
	C274.665985,146.878296 274.403534,146.677048 274.085083,146.228943 
	C274.318237,146.166916 274.607422,146.351746 274.912537,146.808060 
z"/>
<path fill="#F4FD8E" opacity="1.000000" stroke="none" 
	d="
M358.158203,396.170349 
	C358.486633,395.924225 358.746643,396.072052 359.032288,396.548462 
	C358.802612,396.654266 358.479889,396.550018 358.158203,396.170349 
z"/>
<path fill="#E2F556" opacity="1.000000" stroke="none" 
	d="
M357.652405,395.053467 
	C357.914856,395.118225 357.995972,395.285583 358.032806,395.728424 
	C357.816071,395.721283 357.643585,395.438690 357.652405,395.053467 
z"/>
<path fill="#E2F556" opacity="1.000000" stroke="none" 
	d="
M273.954742,145.772247 
	C273.828064,146.001190 273.642426,146.030472 273.201508,145.939453 
	C273.262726,145.736969 273.579224,145.654800 273.954742,145.772247 
z"/>
<path fill="#E2F556" opacity="1.000000" stroke="none" 
	d="
M357.712341,148.030304 
	C357.955322,148.139221 358.006409,148.326401 357.945557,148.782578 
	C357.663971,148.858231 357.470551,148.679199 357.340179,148.462296 
	C357.304047,148.402206 357.455261,148.229553 357.712341,148.030304 
z"/>
<path fill="#E1F74C" opacity="1.000000" stroke="none" 
	d="
M253.587799,396.016296 
	C253.883881,396.115417 253.971924,396.285828 254.043549,396.743469 
	C253.839249,397.046112 253.651352,397.061554 253.207916,396.953735 
	C252.979187,396.516174 253.121643,396.268555 253.587799,396.016296 
z"/>
<path fill="#E0F839" opacity="1.000000" stroke="none" 
	d="
M379.244202,397.042786 
	C378.960358,396.848602 378.953583,396.663849 379.060852,396.225403 
	C379.484558,396.006409 379.723877,396.154572 379.960144,396.620850 
	C379.858704,396.901062 379.690002,396.976624 379.244202,397.042786 
z"/>
<path fill="#E2F556" opacity="1.000000" stroke="none" 
	d="
M358.302826,335.094910 
	C358.063507,334.879547 358.102386,334.675323 358.264404,334.182922 
	C358.641174,334.008026 358.833191,334.187347 359.012024,334.627808 
	C358.900696,334.917267 358.740845,335.011658 358.302826,335.094910 
z"/>
<path fill="#E2F556" opacity="1.000000" stroke="none" 
	d="
M357.996582,209.001572 
	C358.246857,209.222885 358.503387,209.439880 358.827148,209.906250 
	C358.894440,210.155609 358.527557,210.133820 358.368896,210.042038 
	C358.210205,209.950256 358.040405,210.187393 357.996460,209.879181 
	C357.972809,209.376266 357.993073,209.181564 358.013306,208.986862 
	C358.013306,208.986862 358.002777,208.997269 357.996582,209.001572 
z"/>
<path fill="#F4FD8E" opacity="1.000000" stroke="none" 
	d="
M378.892029,335.785553 
	C378.565552,335.993561 378.308167,335.819946 378.026825,335.327057 
	C378.254303,335.240601 378.573761,335.372650 378.892029,335.785553 
z"/>
<path fill="#E2F556" opacity="1.000000" stroke="none" 
	d="
M253.636627,207.049896 
	C253.895691,207.114670 253.976288,207.285477 254.012604,207.736160 
	C253.798264,207.729340 253.628235,207.442642 253.636627,207.049896 
z"/>
<path fill="#E1F74C" opacity="1.000000" stroke="none" 
	d="
M274.032074,209.357117 
	C274.130890,209.072067 274.302948,209.003448 274.752258,208.953522 
	C275.042999,209.156387 275.056488,209.340591 274.965912,209.782349 
	C274.536591,210.002960 274.284424,209.847504 274.032074,209.357117 
z"/>
<path fill="#E2F556" opacity="1.000000" stroke="none" 
	d="
M254.044281,208.296692 
	C254.271606,208.179565 254.563644,208.326614 254.966888,208.700897 
	C254.755066,208.805725 254.432007,208.683304 254.044281,208.296692 
z"/>
<path fill="#E1F74C" opacity="1.000000" stroke="none" 
	d="
M275.047729,334.751465 
	C274.844574,335.040771 274.659821,335.053223 274.216919,334.961182 
	C273.997223,334.532074 274.153625,334.280945 274.643250,334.031677 
	C274.927704,334.131531 274.996918,334.303070 275.047729,334.751465 
z"/>
<path fill="#E1F74C" opacity="1.000000" stroke="none" 
	d="
M253.740372,336.033417 
	C253.966385,336.155579 253.998459,336.343872 253.905365,336.790222 
	C253.627823,336.845490 253.451263,336.654846 253.338989,336.431824 
	C253.308502,336.371246 253.471985,336.212952 253.740372,336.033417 
z"/>
<path fill="#E1F74C" opacity="1.000000" stroke="none" 
	d="
M254.797363,335.071411 
	C254.860046,335.311249 254.657227,335.572266 254.205902,335.881256 
	C254.148880,335.650330 254.340378,335.371460 254.797363,335.071411 
z"/>
<path fill="#F4FD8E" opacity="1.000000" stroke="none" 
	d="
M357.710907,209.009567 
	C357.993073,209.181564 357.972809,209.376266 357.853821,209.848862 
	C357.467773,210.010071 357.234497,209.825150 356.938477,209.378677 
	C357.017273,209.134369 357.212891,209.083328 357.710907,209.009567 
z"/>
</svg>